<svg xmlns="http://www.w3.org/2000/svg" viewBox="0 0 460.617 460.602">
<path fill="#269B4D" d="M230.303 0c127.201 0 230.314 103.104 230.314 230.295 0 127.205-103.113 230.307-230.314 230.307C103.112 460.602 0 357.5 0 230.295 0 103.104 103.112 0 230.303 0z"/><path fill="#FFF" d="M363.313 204.043c-4.854 29.719-18.681 50.006-41.479 60.86-10.275 4.892-20.082 7.546-29.38 7.97-12.479.507-30.858-1.219-55.124-5.179l-34.276-5.593-16.042 98.2-52.559-8.584 26.452-161.958-26.989-4.409 5.398-33.026 26.988 4.408 10.674-65.352 84.354 13.777c31.838 5.205 52.461 9.914 61.869 14.116 16.314 7.288 27.959 18.918 34.957 34.887 6.461 14.793 8.176 31.42 5.157 49.883zm-54.266-8.138c1.479-9.117.07-17.243-4.227-24.392-4.299-7.137-10.82-12.278-19.551-15.409-6.195-2.222-18.705-4.879-37.531-7.949l-25.393-4.15-3.479 21.313 46.701 7.631-5.391 33.026-46.708-7.633-3.188 19.54 28.764 4.696c15.39 2.512 26.01 3.695 31.867 3.563 12.57-.256 22.212-3.907 28.957-10.947 4.837-5.04 7.898-11.47 9.179-19.289z"/>
</svg>
